<?xml version="1.0" encoding="UTF-8"?>
<!DOCTYPE svg
PUBLIC "-//W3C//DTD SVG 1.1//EN"
       "http://www.w3.org/Graphics/SVG/1.1/DTD/svg11.dtd">
<svg viewBox="339 13 823 733" width="484px" height="720px" xmlns="http://www.w3.org/2000/svg" version="1.1">
   <line x1="688" y1="485" x2="678" y2="485" style="stroke:#0bf;stroke-width:1;"/>
   <line x1="612" y1="486" x2="622" y2="486" style="stroke:#0bf;stroke-width:1;"/>
   <line x1="678" y1="485" x2="612" y2="486" style="stroke:#0bf;stroke-width:1;"/>
   <line x1="680.5" y1="485" x2="684.03553390593" y2="488.53553390593" style="stroke:#0bf;stroke-width:2;"/>
   <line x1="680.5" y1="485" x2="684.03553390593" y2="481.46446609407" style="stroke:#0bf;stroke-width:2;"/>
   <line x1="617" y1="486" x2="613.46446609407" y2="489.53553390593" style="stroke:#0bf;stroke-width:2;"/>
   <line x1="617" y1="486" x2="613.46446609407" y2="482.46446609407" style="stroke:#0bf;stroke-width:2;"/>
   <line x1="805" y1="505" x2="815" y2="505" style="stroke:#cb0;stroke-width:1;"/>
   <line x1="818" y1="351" x2="808" y2="351" style="stroke:#cb0;stroke-width:1;"/>
   <line x1="815" y1="505" x2="818" y2="351" style="stroke:#cb0;stroke-width:1;"/>
   <line x1="812.5" y1="505" x2="808.96446609407" y2="508.53553390593" style="stroke:#cb0;stroke-width:2;"/>
   <line x1="812.5" y1="505" x2="808.96446609407" y2="501.46446609407" style="stroke:#cb0;stroke-width:2;"/>
   <line x1="813" y1="351" x2="816.53553390593" y2="354.53553390593" style="stroke:#cb0;stroke-width:2;"/>
   <line x1="813" y1="351" x2="816.53553390593" y2="347.46446609407" style="stroke:#cb0;stroke-width:2;"/>
   <line x1="688" y1="525" x2="678" y2="525" style="stroke:#b0b;stroke-width:1;"/>
   <line x1="675" y1="245" x2="665" y2="245" style="stroke:#b0b;stroke-width:1;"/>
   <line x1="678" y1="525" x2="675" y2="245" style="stroke:#b0b;stroke-width:1;"/>
   <line x1="680.5" y1="525" x2="684.03553390593" y2="528.53553390593" style="stroke:#b0b;stroke-width:2;"/>
   <line x1="680.5" y1="525" x2="684.03553390593" y2="521.46446609407" style="stroke:#b0b;stroke-width:2;"/>
   <line x1="670" y1="245" x2="673.53553390593" y2="248.53553390593" style="stroke:#b0b;stroke-width:2;"/>
   <line x1="670" y1="245" x2="673.53553390593" y2="241.46446609407" style="stroke:#b0b;stroke-width:2;"/>
   <line x1="604" y1="588" x2="614" y2="588" style="stroke:#333;stroke-width:1;"/>
   <line x1="678" y1="465" x2="688" y2="465" style="stroke:#333;stroke-width:1;"/>
   <line x1="614" y1="588" x2="678" y2="465" style="stroke:#333;stroke-width:1;"/>
   <line x1="611.5" y1="588" x2="607.96446609407" y2="591.53553390593" style="stroke:#333;stroke-width:2;"/>
   <line x1="611.5" y1="588" x2="607.96446609407" y2="584.46446609407" style="stroke:#333;stroke-width:2;"/>
   <line x1="683" y1="465" x2="679.46446609407" y2="468.53553390593" style="stroke:#333;stroke-width:2;"/>
   <line x1="683" y1="465" x2="679.46446609407" y2="461.46446609407" style="stroke:#333;stroke-width:2;"/>
   <line x1="519" y1="78" x2="529" y2="78" style="stroke:#c00;stroke-width:1;"/>
   <line x1="678" y1="465" x2="688" y2="465" style="stroke:#c00;stroke-width:1;"/>
   <line x1="529" y1="78" x2="678" y2="465" style="stroke:#c00;stroke-width:1;"/>
   <line x1="526.5" y1="78" x2="522.96446609407" y2="81.535533905933" style="stroke:#c00;stroke-width:2;"/>
   <line x1="526.5" y1="78" x2="522.96446609407" y2="74.464466094067" style="stroke:#c00;stroke-width:2;"/>
   <line x1="683" y1="465" x2="679.46446609407" y2="468.53553390593" style="stroke:#c00;stroke-width:2;"/>
   <line x1="683" y1="465" x2="679.46446609407" y2="461.46446609407" style="stroke:#c00;stroke-width:2;"/>
   <line x1="665" y1="265" x2="675" y2="265" style="stroke:#cb0;stroke-width:1;"/>
   <line x1="612" y1="486" x2="622" y2="486" style="stroke:#cb0;stroke-width:1;"/>
   <line x1="675" y1="265" x2="612" y2="486" style="stroke:#cb0;stroke-width:1;"/>
   <line x1="672.5" y1="265" x2="668.96446609407" y2="268.53553390593" style="stroke:#cb0;stroke-width:2;"/>
   <line x1="672.5" y1="265" x2="668.96446609407" y2="261.46446609407" style="stroke:#cb0;stroke-width:2;"/>
   <line x1="617" y1="486" x2="613.46446609407" y2="489.53553390593" style="stroke:#cb0;stroke-width:2;"/>
   <line x1="617" y1="486" x2="613.46446609407" y2="482.46446609407" style="stroke:#cb0;stroke-width:2;"/>
   <rect width="117" height="20" x="688" y="435" style="fill:#007;stroke:black;"/>
   <text width="117" height="20" x="693" y="449" style="fill:#fff;" font-family="Arial" font-size="16px"> consultas</text>
   <rect width="117" height="20" x="688" y="455" style="fill:#aea;stroke:black;"/>
   <text width="117" height="20" x="693" y="469" style="fill:black;" font-family="Arial" font-size="16px">id</text>
   <rect width="117" height="20" x="688" y="475" style="fill:none;stroke:black;"/>
   <text width="117" height="20" x="693" y="489" style="fill:black;" font-family="Arial" font-size="16px">utente_id</text>
   <rect width="117" height="20" x="688" y="495" style="fill:none;stroke:black;"/>
   <text width="117" height="20" x="693" y="509" style="fill:black;" font-family="Arial" font-size="16px">medico_id</text>
   <rect width="117" height="20" x="688" y="515" style="fill:none;stroke:black;"/>
   <text width="117" height="20" x="693" y="529" style="fill:black;" font-family="Arial" font-size="16px">triagem_id</text>
   <rect width="117" height="20" x="688" y="535" style="fill:none;stroke:black;"/>
   <text width="117" height="20" x="693" y="549" style="fill:black;" font-family="Arial" font-size="16px">data_agendada</text>
   <rect width="117" height="20" x="688" y="555" style="fill:none;stroke:black;"/>
   <text width="117" height="20" x="693" y="569" style="fill:black;" font-family="Arial" font-size="16px">data_realizada</text>
   <rect width="117" height="20" x="688" y="575" style="fill:none;stroke:black;"/>
   <text width="117" height="20" x="693" y="589" style="fill:black;" font-family="Arial" font-size="16px">estado</text>
   <rect width="117" height="20" x="688" y="595" style="fill:none;stroke:black;"/>
   <text width="117" height="20" x="693" y="609" style="fill:black;" font-family="Arial" font-size="16px">diagnostico</text>
   <rect width="117" height="20" x="688" y="615" style="fill:none;stroke:black;"/>
   <text width="117" height="20" x="693" y="629" style="fill:black;" font-family="Arial" font-size="16px">observacoes</text>
   <rect width="108" height="20" x="700" y="321" style="fill:#007;stroke:black;"/>
   <text width="108" height="20" x="705" y="335" style="fill:#fff;" font-family="Arial" font-size="16px"> medicos</text>
   <rect width="108" height="20" x="700" y="341" style="fill:#aea;stroke:black;"/>
   <text width="108" height="20" x="705" y="355" style="fill:black;" font-family="Arial" font-size="16px">id</text>
   <rect width="108" height="20" x="700" y="361" style="fill:none;stroke:black;"/>
   <text width="108" height="20" x="705" y="375" style="fill:black;" font-family="Arial" font-size="16px">cedula</text>
   <rect width="108" height="20" x="700" y="381" style="fill:none;stroke:black;"/>
   <text width="108" height="20" x="705" y="395" style="fill:black;" font-family="Arial" font-size="16px">nome</text>
   <rect width="108" height="20" x="700" y="401" style="fill:none;stroke:black;"/>
   <text width="108" height="20" x="705" y="415" style="fill:black;" font-family="Arial" font-size="16px">especialidade</text>
   <rect width="108" height="20" x="700" y="421" style="fill:none;stroke:black;"/>
   <text width="108" height="20" x="705" y="435" style="fill:black;" font-family="Arial" font-size="16px">telefone</text>
   <rect width="108" height="20" x="700" y="441" style="fill:none;stroke:black;"/>
   <text width="108" height="20" x="705" y="455" style="fill:black;" font-family="Arial" font-size="16px">email</text>
   <rect width="108" height="20" x="700" y="461" style="fill:none;stroke:black;"/>
   <text width="108" height="20" x="705" y="475" style="fill:black;" font-family="Arial" font-size="16px">activo</text>
   <rect width="106" height="20" x="498" y="538" style="fill:#007;stroke:black;"/>
   <text width="106" height="20" x="503" y="552" style="fill:#fff;" font-family="Arial" font-size="16px"> prescricoes</text>
   <rect width="106" height="20" x="498" y="558" style="fill:#aea;stroke:black;"/>
   <text width="106" height="20" x="503" y="572" style="fill:black;" font-family="Arial" font-size="16px">id</text>
   <rect width="106" height="20" x="498" y="578" style="fill:none;stroke:black;"/>
   <text width="106" height="20" x="503" y="592" style="fill:black;" font-family="Arial" font-size="16px">consulta_id</text>
   <rect width="106" height="20" x="498" y="598" style="fill:none;stroke:black;"/>
   <text width="106" height="20" x="503" y="612" style="fill:black;" font-family="Arial" font-size="16px">medicamento</text>
   <rect width="106" height="20" x="498" y="618" style="fill:none;stroke:black;"/>
   <text width="106" height="20" x="503" y="632" style="fill:black;" font-family="Arial" font-size="16px">dosagem</text>
   <rect width="106" height="20" x="498" y="638" style="fill:none;stroke:black;"/>
   <text width="106" height="20" x="503" y="652" style="fill:black;" font-family="Arial" font-size="16px">posologia</text>
   <rect width="106" height="20" x="498" y="658" style="fill:none;stroke:black;"/>
   <text width="106" height="20" x="503" y="672" style="fill:black;" font-family="Arial" font-size="16px">duracao_dias</text>
   <rect width="106" height="20" x="498" y="678" style="fill:none;stroke:black;"/>
   <text width="106" height="20" x="503" y="692" style="fill:black;" font-family="Arial" font-size="16px">observacoes</text>
   <rect width="106" height="20" x="498" y="698" style="fill:none;stroke:black;"/>
   <text width="106" height="20" x="503" y="712" style="fill:black;" font-family="Arial" font-size="16px">data_emissao</text>
   <rect width="165" height="20" x="354" y="28" style="fill:#007;stroke:black;"/>
   <text width="165" height="20" x="359" y="42" style="fill:#fff;" font-family="Arial" font-size="16px"> referencias</text>
   <rect width="165" height="20" x="354" y="48" style="fill:#aea;stroke:black;"/>
   <text width="165" height="20" x="359" y="62" style="fill:black;" font-family="Arial" font-size="16px">id</text>
   <rect width="165" height="20" x="354" y="68" style="fill:none;stroke:black;"/>
   <text width="165" height="20" x="359" y="82" style="fill:black;" font-family="Arial" font-size="16px">consulta_id</text>
   <rect width="165" height="20" x="354" y="88" style="fill:none;stroke:black;"/>
   <text width="165" height="20" x="359" y="102" style="fill:black;" font-family="Arial" font-size="16px">tipo</text>
   <rect width="165" height="20" x="354" y="108" style="fill:none;stroke:black;"/>
   <text width="165" height="20" x="359" y="122" style="fill:black;" font-family="Arial" font-size="16px">especialidade_destino</text>
   <rect width="165" height="20" x="354" y="128" style="fill:none;stroke:black;"/>
   <text width="165" height="20" x="359" y="142" style="fill:black;" font-family="Arial" font-size="16px">hospital_destino</text>
   <rect width="165" height="20" x="354" y="148" style="fill:none;stroke:black;"/>
   <text width="165" height="20" x="359" y="162" style="fill:black;" font-family="Arial" font-size="16px">motivo</text>
   <rect width="165" height="20" x="354" y="168" style="fill:none;stroke:black;"/>
   <text width="165" height="20" x="359" y="182" style="fill:black;" font-family="Arial" font-size="16px">prioridade</text>
   <rect width="165" height="20" x="354" y="188" style="fill:none;stroke:black;"/>
   <text width="165" height="20" x="359" y="202" style="fill:black;" font-family="Arial" font-size="16px">data_emissao</text>
   <rect width="165" height="20" x="354" y="208" style="fill:none;stroke:black;"/>
   <text width="165" height="20" x="359" y="222" style="fill:black;" font-family="Arial" font-size="16px">data_validade</text>
   <rect width="165" height="20" x="354" y="228" style="fill:none;stroke:black;"/>
   <text width="165" height="20" x="359" y="242" style="fill:black;" font-family="Arial" font-size="16px">utilizada</text>
   <rect width="125" height="20" x="540" y="215" style="fill:#007;stroke:black;"/>
   <text width="125" height="20" x="545" y="229" style="fill:#fff;" font-family="Arial" font-size="16px"> triagens</text>
   <rect width="125" height="20" x="540" y="235" style="fill:#aea;stroke:black;"/>
   <text width="125" height="20" x="545" y="249" style="fill:black;" font-family="Arial" font-size="16px">id</text>
   <rect width="125" height="20" x="540" y="255" style="fill:none;stroke:black;"/>
   <text width="125" height="20" x="545" y="269" style="fill:black;" font-family="Arial" font-size="16px">utente_id</text>
   <rect width="125" height="20" x="540" y="275" style="fill:none;stroke:black;"/>
   <text width="125" height="20" x="545" y="289" style="fill:black;" font-family="Arial" font-size="16px">nivel</text>
   <rect width="125" height="20" x="540" y="295" style="fill:none;stroke:black;"/>
   <text width="125" height="20" x="545" y="309" style="fill:black;" font-family="Arial" font-size="16px">queixa</text>
   <rect width="125" height="20" x="540" y="315" style="fill:none;stroke:black;"/>
   <text width="125" height="20" x="545" y="329" style="fill:black;" font-family="Arial" font-size="16px">sinais_vitais</text>
   <rect width="125" height="20" x="540" y="335" style="fill:none;stroke:black;"/>
   <text width="125" height="20" x="545" y="349" style="fill:black;" font-family="Arial" font-size="16px">observacoes</text>
   <rect width="125" height="20" x="540" y="355" style="fill:none;stroke:black;"/>
   <text width="125" height="20" x="545" y="369" style="fill:black;" font-family="Arial" font-size="16px">data_hora</text>
   <rect width="125" height="20" x="540" y="375" style="fill:none;stroke:black;"/>
   <text width="125" height="20" x="545" y="389" style="fill:black;" font-family="Arial" font-size="16px">enfermeiro</text>
   <rect width="125" height="20" x="540" y="395" style="fill:none;stroke:black;"/>
   <text width="125" height="20" x="545" y="409" style="fill:black;" font-family="Arial" font-size="16px">consulta_gerada</text>
   <rect width="114" height="20" x="622" y="456" style="fill:#007;stroke:black;"/>
   <text width="114" height="20" x="627" y="470" style="fill:#fff;" font-family="Arial" font-size="16px"> utentes</text>
   <rect width="114" height="20" x="622" y="476" style="fill:#aea;stroke:black;"/>
   <text width="114" height="20" x="627" y="490" style="fill:black;" font-family="Arial" font-size="16px">id</text>
   <rect width="114" height="20" x="622" y="496" style="fill:none;stroke:black;"/>
   <text width="114" height="20" x="627" y="510" style="fill:black;" font-family="Arial" font-size="16px">numero_utente</text>
   <rect width="114" height="20" x="622" y="516" style="fill:none;stroke:black;"/>
   <text width="114" height="20" x="627" y="530" style="fill:black;" font-family="Arial" font-size="16px">nome</text>
   <rect width="114" height="20" x="622" y="536" style="fill:none;stroke:black;"/>
   <text width="114" height="20" x="627" y="550" style="fill:black;" font-family="Arial" font-size="16px">data_nasc</text>
   <rect width="114" height="20" x="622" y="556" style="fill:none;stroke:black;"/>
   <text width="114" height="20" x="627" y="570" style="fill:black;" font-family="Arial" font-size="16px">sexo</text>
   <rect width="114" height="20" x="622" y="576" style="fill:none;stroke:black;"/>
   <text width="114" height="20" x="627" y="590" style="fill:black;" font-family="Arial" font-size="16px">morada</text>
   <rect width="114" height="20" x="622" y="596" style="fill:none;stroke:black;"/>
   <text width="114" height="20" x="627" y="610" style="fill:black;" font-family="Arial" font-size="16px">telefone</text>
   <rect width="114" height="20" x="622" y="616" style="fill:none;stroke:black;"/>
   <text width="114" height="20" x="627" y="630" style="fill:black;" font-family="Arial" font-size="16px">email</text>
   <rect width="114" height="20" x="622" y="636" style="fill:none;stroke:black;"/>
   <text width="114" height="20" x="627" y="650" style="fill:black;" font-family="Arial" font-size="16px">historico</text>
   <rect width="114" height="20" x="622" y="656" style="fill:none;stroke:black;"/>
   <text width="114" height="20" x="627" y="670" style="fill:black;" font-family="Arial" font-size="16px">data_cadastro</text>
</svg>
